<?xml version="1.0" encoding="UTF-8" standalone="no"?>
<!DOCTYPE svg PUBLIC "-//W3C//DTD SVG 1.1//EN"
 "http://www.w3.org/Graphics/SVG/1.1/DTD/svg11.dtd">
<!-- Generated by graphviz version 2.43.0 (0)
 -->
<!-- Title: wifi_tx_task Pages: 1 -->
<svg width="231pt" height="76pt"
 viewBox="0.00 0.00 231.00 75.50" xmlns="http://www.w3.org/2000/svg" xmlns:xlink="http://www.w3.org/1999/xlink">
<g id="graph0" class="graph" transform="scale(1 1) rotate(0) translate(4 71.5)">
<title>wifi_tx_task</title>
<!-- Node1 -->
<g id="Node000001" class="node">
<title>Node1</title>
<g id="a_Node000001"><a xlink:title="WiFi TX task &#45; Pop audio from buffer and send via ESP&#45;NOW (Phase 3)">
<polygon fill="#999999" stroke="#666666" points="75,-40 0,-40 0,-21 75,-21 75,-40"/>
<text text-anchor="middle" x="37.5" y="-28" font-family="Helvetica,sans-Serif" font-size="10.00">wifi_tx_task</text>
</a>
</g>
</g>
<!-- Node2 -->
<g id="Node000002" class="node">
<title>Node2</title>
<g id="a_Node000002"><a xlink:href="wifi__transport_8c.html#a0b3de6bc0d9cfda0dcfd2c8cdd8d3442" target="_top" xlink:title="Get current sequence number for TX.">
<polygon fill="white" stroke="#666666" points="219,-67.5 115,-67.5 115,-37.5 219,-37.5 219,-67.5"/>
<text text-anchor="start" x="123" y="-55.5" font-family="Helvetica,sans-Serif" font-size="10.00">wifi_transport_get</text>
<text text-anchor="middle" x="167" y="-44.5" font-family="Helvetica,sans-Serif" font-size="10.00">_seq_num</text>
</a>
</g>
</g>
<!-- Node1&#45;&gt;Node2 -->
<g id="edge1_Node000001_Node000002" class="edge">
<title>Node1&#45;&gt;Node2</title>
<g id="a_edge1_Node000001_Node000002"><a xlink:title=" ">
<path fill="none" stroke="#63b8ff" d="M75.04,-36.8C84.31,-38.4 94.53,-40.17 104.66,-41.92"/>
<polygon fill="#63b8ff" stroke="#63b8ff" points="104.28,-45.4 114.73,-43.65 105.47,-38.5 104.28,-45.4"/>
</a>
</g>
</g>
<!-- Node3 -->
<g id="Node000003" class="node">
<title>Node3</title>
<g id="a_Node000003"><a xlink:href="wifi__transport_8c.html#a5e3ae912fff502974839e28443f76752" target="_top" xlink:title="Send audio packet via ESP&#45;NOW broadcast.">
<polygon fill="white" stroke="#666666" points="223,-19 111,-19 111,0 223,0 223,-19"/>
<text text-anchor="middle" x="167" y="-7" font-family="Helvetica,sans-Serif" font-size="10.00">wifi_transport_send</text>
</a>
</g>
</g>
<!-- Node1&#45;&gt;Node3 -->
<g id="edge2_Node000001_Node000003" class="edge">
<title>Node1&#45;&gt;Node3</title>
<g id="a_edge2_Node000001_Node000003"><a xlink:title=" ">
<path fill="none" stroke="#63b8ff" d="M75.04,-24.48C83.16,-23.14 92.02,-21.69 100.9,-20.22"/>
<polygon fill="#63b8ff" stroke="#63b8ff" points="101.62,-23.65 110.92,-18.57 100.48,-16.74 101.62,-23.65"/>
</a>
</g>
</g>
</g>
</svg>
